<svg height="32" viewBox="0 0 32 32" width="32" xmlns="http://www.w3.org/2000/svg"><path d="m30.563 9.369-.136-.307-.229.249c-.541.62-1.233 1.095-2.004 1.381l-.215.083.089.208c.661 1.589 1.005 3.292 1 5.011 0 7.208-5.86 13.073-13.073 13.073s-13.068-5.86-13.068-13.068 5.871-13.073 13.073-13.073c1.959 0 3.844.423 5.599 1.261l.208.099.089-.204c.323-.76.828-1.421 1.473-1.937l.261-.213-.297-.156c-2.265-1.172-4.781-1.781-7.333-1.776-8.823 0-16 7.177-16 16 0 8.828 7.177 16 16 16 8.828 0 16-7.172 16-16 0-2.307-.479-4.536-1.437-6.631zm-14.563-.661c-4.027.005-7.287 3.265-7.292 7.292.005 4.027 3.265 7.287 7.292 7.292 4.027-.005 7.287-3.265 7.292-7.292-.005-4.027-3.265-7.287-7.292-7.292zm13.792-2.677c0 1.839-1.489 3.324-3.323 3.324-1.839 0-3.329-1.485-3.329-3.324 0-4.432 6.652-4.432 6.652 0z"/></svg>