<svg fill="none" height="1024" viewBox="0 0 1024 1024" width="1024" xmlns="http://www.w3.org/2000/svg"><rect fill="#00796b" height="1024" rx="512" width="1024"/><path d="m321.387 772c-39.452 0-81.023-5.618-124.715-16.854v-79.852c24.519 7.553 44.798 13.263 60.836 17.131 16.039 4.052 31.801 6.079 47.287 6.079 44.613 0 66.92-22.104 66.92-66.313-10.14 9.026-22.583 16.67-37.332 22.933-14.748 6.263-31.432 9.395-50.051 9.395-26.731 0-49.315-6.724-67.75-20.17-18.435-13.263-32.354-31.223-41.756-53.879-9.217-22.657-13.826-47.801-13.826-75.431 0-28.367 4.701-53.971 14.103-76.812 9.402-23.025 23.321-41.353 41.756-54.984 18.619-13.631 41.11-20.446 67.473-20.446 36.317 0 65.445 15.657 87.383 46.971l19.91-41.169h140.753v85.378h-26.547v173.241c0 31.867-7.65 58.576-22.952 80.127-15.117 21.552-36.501 37.669-64.154 48.353-27.653 10.868-60.099 16.302-97.338 16.302zm15.209-183.188c8.664 0 16.591-2.671 23.781-8.013s11.522-10.591 12.997-15.749v-100.85c-7.005-13.631-20.002-20.447-38.991-20.447-15.116 0-27.284 6.54-36.501 19.618-9.034 13.078-13.55 30.854-13.55 53.326 0 21.552 4.516 38.959 13.55 52.221 9.217 13.263 22.122 19.894 38.714 19.894z" fill="#fff"/><path d="m800.887 252h61.113l-217.351 465.016h-61.113l108.676-232.508z" fill="#fff"/><circle cx="512" cy="512" r="488" stroke="#fff" stroke-width="24"/></svg>